<?xml version="1.0" encoding="UTF-8" standalone="no"?>
<!DOCTYPE svg PUBLIC "-//W3C//DTD SVG 1.1//EN" "http://www.w3.org/Graphics/SVG/1.1/DTD/svg11.dtd">
<svg width="100%" height="100%" viewBox="0 0 866 265" version="1.1" xmlns="http://www.w3.org/2000/svg" xmlns:xlink="http://www.w3.org/1999/xlink" xml:space="preserve" xmlns:serif="http://www.serif.com/" style="fill-rule:evenodd;clip-rule:evenodd;stroke-linejoin:round;stroke-miterlimit:2;">
    <g transform="matrix(1.33333,0,0,1.33333,0,0)">
        <g>
            <g transform="matrix(1.0985,0,0,1.0985,-31.9769,-9.76594)">
                <path d="M32.2,48.8C32.2,48.1 32.7,47.6 33.4,47.6L42.4,47.6C43.1,47.6 43.6,48.1 43.6,48.8L43.6,149.5C43.6,150.2 43.1,150.7 42.4,150.7L33.4,150.7C32.7,150.7 32.2,150.2 32.2,149.5L32.2,48.8Z" style="fill:white;fill-rule:nonzero;"/>
            </g>
            <g transform="matrix(1.0985,0,0,1.0985,-31.9769,-9.76594)">
                <path d="M55.1,48.8C55.1,48.1 55.6,47.6 56.3,47.6L65.3,47.6C66,47.6 66.5,48.1 66.5,48.8L66.5,149.5C66.5,150.2 66,150.7 65.3,150.7L56.3,150.7C55.6,150.7 55.1,150.2 55.1,149.5L55.1,48.8Z" style="fill:white;fill-rule:nonzero;"/>
            </g>
            <g transform="matrix(1.0985,0,0,1.0985,-31.9769,-9.76594)">
                <path d="M78,48.8C78,48.1 78.5,47.6 79.2,47.6L88.2,47.6C88.9,47.6 89.4,48.1 89.4,48.8L89.4,149.5C89.4,150.2 88.9,150.7 88.2,150.7L79.2,150.7C78.5,150.7 78,150.2 78,149.5L78,48.8Z" style="fill:white;fill-rule:nonzero;"/>
            </g>
            <g transform="matrix(1.0985,0,0,1.0985,-31.9769,-9.76594)">
                <path d="M100.9,48.8C100.9,48.1 101.4,47.6 102.1,47.6L111.1,47.6C111.8,47.6 112.3,48.1 112.3,48.8L112.3,149.5C112.3,150.2 111.8,150.7 111.1,150.7L102.1,150.7C101.4,150.7 100.9,150.2 100.9,149.5L100.9,48.8Z" style="fill:white;fill-rule:nonzero;"/>
            </g>
            <g transform="matrix(1.0985,0,0,1.0985,-31.9769,-9.76594)">
                <path d="M123.8,88.9C123.8,88.2 124.3,87.7 125,87.7L134,87.7C134.7,87.7 135.2,88.2 135.2,88.9L135.2,109.4C135.2,110.1 134.7,110.6 134,110.6L125,110.6C124.3,110.6 123.8,110.1 123.8,109.4L123.8,88.9Z" style="fill:white;fill-rule:nonzero;"/>
            </g>
        </g>
        <g transform="matrix(1.0985,0,0,1.0985,-31.9769,-9.76594)">
            <path d="M195.2,75.7C192,75.7 189.1,76.3 186.5,77.4C183.9,78.5 181.7,80.1 179.9,82.3C178.1,84.5 176.8,87.2 175.8,90.3C174.9,93.4 174.4,96.9 174.4,100.8C174.4,104.7 175.2,110.4 176.7,114.2C178.2,117.9 180.5,120.8 183.6,122.8C186.7,124.8 190.5,125.8 195.1,125.8C199.7,125.8 200.6,125.6 203.2,125.1C205.8,124.6 208.5,123.8 211.2,123L211.2,131.5C208.6,132.5 206,133.2 203.3,133.6C200.6,134.1 197.5,134.3 194,134.3C187.3,134.3 181.8,132.9 177.3,130.2C172.9,127.5 169.6,123.5 167.4,118.5C165.2,113.4 164.1,107.5 164.1,100.7C164.1,93.9 164.8,91.2 166.1,87.1C167.5,82.9 169.5,79.4 172.1,76.4C174.7,73.4 178,71.1 181.8,69.5C185.7,67.9 190.2,67 195.3,67C200.4,67 201.8,67.4 205,68.1C208.2,68.8 211,69.7 213.6,71L209.9,79.2C207.8,78.2 205.4,77.4 202.9,76.6C200.6,76.1 198,75.7 195.2,75.7Z" style="fill:white;fill-rule:nonzero;"/>
        </g>
        <g transform="matrix(1.0985,0,0,1.0985,-31.9769,-9.76594)">
            <rect x="224.2" y="63.9" width="9.7" height="69.6" style="fill:white;fill-rule:nonzero;"/>
        </g>
        <g transform="matrix(1.0985,0,0,1.0985,-31.9769,-9.76594)">
            <path d="M255.2,84.1L255.2,133.5L245.5,133.5L245.5,84.1L255.2,84.1ZM250.5,65.4C252,65.4 253.2,65.8 254.3,66.7C255.4,67.6 255.9,69 255.9,71C255.9,73 255.4,74.4 254.3,75.3C253.2,76.2 251.9,76.6 250.5,76.6C249.1,76.6 247.6,76.2 246.5,75.3C245.5,74.4 244.9,72.9 244.9,71C244.9,69.1 245.4,67.5 246.5,66.7C247.5,65.8 248.9,65.4 250.5,65.4Z" style="fill:white;fill-rule:nonzero;"/>
        </g>
        <g transform="matrix(1.0985,0,0,1.0985,-31.9769,-9.76594)">
            <path d="M288.5,134.4C284,134.4 280,133.5 276.6,131.7C273.2,129.9 270.5,127.2 268.6,123.5C266.7,119.7 265.8,114.9 265.8,109.1C265.8,103.3 266.8,98 268.8,94.3C270.9,90.5 273.7,87.7 277.1,86C280.6,84.2 284.7,83.3 289.2,83.3C293.7,83.3 294.5,83.6 296.9,84.2C299.3,84.7 301.4,85.4 302.9,86.1L300,94C298.3,93.3 296.5,92.7 294.5,92.3C292.6,91.8 290.8,91.6 289.1,91.6C286,91.6 283.5,92.3 281.5,93.6C279.5,94.9 278.1,96.8 277.1,99.5C276.2,102.1 275.7,105.3 275.7,109.2C275.7,113.1 276.2,116.1 277.2,118.6C278.2,121.2 279.6,123.1 281.5,124.5C283.5,125.8 285.9,126.4 288.7,126.4C291.5,126.4 293.9,126.1 295.9,125.5C298,124.9 299.9,124.1 301.8,123.1L301.8,131.5C300,132.5 298.1,133.3 296,133.8C294.1,134.2 291.5,134.4 288.5,134.4Z" style="fill:white;fill-rule:nonzero;"/>
        </g>
        <g transform="matrix(1.0985,0,0,1.0985,-31.9769,-9.76594)">
            <path d="M321.2,105.7C321.9,105 342.3,84.1 342.3,84.1L353.6,84.1L333.7,105.3L354.9,133.5L343.4,133.5L327.1,111.4L321.4,116.2L321.4,133.5L311.8,133.5L311.8,63.9L321.4,63.9L321.2,105.7Z" style="fill:white;fill-rule:nonzero;"/>
        </g>
        <g transform="matrix(1.0985,0,0,1.0985,-31.9769,-9.76594)">
            <path d="M415.1,133.5L405.2,133.5L405.2,103.6L374,103.6L374,133.5L364.1,133.5L364.1,68.1L374,68.1L374,95.2L405.2,95.2L405.2,68.1L415.1,68.1L415.1,133.5Z" style="fill:white;fill-rule:nonzero;"/>
        </g>
        <g transform="matrix(1.0985,0,0,1.0985,-31.9769,-9.76594)">
            <path d="M470.4,108.8C470.4,112.9 469.8,116.5 468.8,119.7C467.7,122.9 466.1,125.6 464.1,127.8C462.1,130 459.6,131.7 456.8,132.8C453.9,133.9 450.7,134.4 447.1,134.4C443.5,134.4 440.7,133.9 437.9,132.8C435.1,131.6 432.6,130 430.6,127.8C428.6,125.6 427,122.9 425.8,119.7C424.6,116.5 424.1,112.9 424.1,108.7C424.1,104.5 425,98.7 426.8,94.9C428.7,91.1 431.4,88.2 434.9,86.3C438.4,84.3 442.6,83.3 447.4,83.3C452.2,83.3 455.9,84.3 459.3,86.3C462.8,88.3 465.5,91.1 467.5,94.9C469.4,98.6 470.4,103.3 470.4,108.8ZM434,108.8C434,112.5 434.5,115.6 435.4,118.3C436.3,120.9 437.8,122.9 439.7,124.3C441.7,125.7 444.2,126.4 447.2,126.4C450.2,126.4 452.8,125.7 454.7,124.3C456.7,122.9 458.1,120.9 459,118.3C459.9,115.6 460.4,112.4 460.4,108.8C460.4,105.2 459.9,101.8 458.9,99.3C458,96.7 456.5,94.8 454.6,93.4C452.7,92 450.2,91.3 447.1,91.3C442.5,91.3 439.2,92.8 437.1,95.9C435,98.9 434,103.2 434,108.8Z" style="fill:white;fill-rule:nonzero;"/>
        </g>
        <g transform="matrix(1.0985,0,0,1.0985,-31.9769,-9.76594)">
            <path d="M522.1,84.1L522.1,133.5L514.3,133.5L513,127L512.5,127C511.5,128.7 510.1,130.1 508.5,131.2C506.9,132.3 505,133.1 503.1,133.6C501.1,134.1 499.1,134.4 497.1,134.4C493.3,134.4 490,133.8 487.3,132.6C484.7,131.3 482.7,129.4 481.3,126.7C480,124 479.3,120.6 479.3,116.4L479.3,84.1L489.1,84.1L489.1,115C489.1,118.8 489.9,121.7 491.5,123.6C493.1,125.5 495.7,126.4 499.1,126.4C502.5,126.4 505.2,125.7 507.2,124.4C509.2,123.1 510.5,121.1 511.3,118.5C512.2,115.9 512.6,112.7 512.6,109.1L512.6,84.1L522.1,84.1Z" style="fill:white;fill-rule:nonzero;"/>
        </g>
        <g transform="matrix(1.0985,0,0,1.0985,-31.9769,-9.76594)">
            <path d="M566.5,119.6C566.5,122.8 565.7,125.6 564.1,127.8C562.5,130 560.2,131.7 557.2,132.8C554.2,133.9 550.6,134.4 546.4,134.4C542.2,134.4 539.9,134.1 537.4,133.6C535,133.1 532.7,132.4 530.6,131.4L530.6,122.9C532.8,123.9 535.3,124.9 538.2,125.7C541.1,126.5 543.9,126.9 546.6,126.9C549.3,126.9 552.9,126.3 554.5,125.2C556.1,124 557,122.5 557,120.5C557,118.5 556.7,118.4 556.1,117.6C555.5,116.7 554.3,115.8 552.6,114.9C550.9,113.9 548.5,112.8 545.3,111.6C542.2,110.3 539.5,109.1 537.3,107.8C535.1,106.5 533.4,105 532.3,103.3C531.1,101.5 530.6,99.3 530.6,96.5C530.6,92.2 532.3,89 535.7,86.7C539.2,84.4 543.8,83.2 549.4,83.2C555,83.2 555.2,83.5 557.8,84.1C560.5,84.6 563.1,85.5 565.6,86.7L562.4,94.1C561,93.4 559.5,92.9 558,92.5C556.5,92 555,91.6 553.5,91.3C552,91 550.5,90.8 548.9,90.8C546,90.8 543.7,91.3 542.2,92.2C540.7,93.1 539.9,94.4 539.9,96C539.9,97.6 540.2,98.2 540.9,99C541.6,99.9 542.9,100.7 544.7,101.6C546.5,102.5 548.9,103.5 551.9,104.7C555,105.9 557.6,107.1 559.7,108.3C561.9,109.5 563.5,111 564.6,112.8C565.9,114.6 566.5,116.9 566.5,119.6Z" style="fill:white;fill-rule:nonzero;"/>
        </g>
        <g transform="matrix(1.0985,0,0,1.0985,-31.9769,-9.76594)">
            <path d="M596.2,83.2C600.5,83.2 604.3,84.1 607.4,85.9C610.5,87.7 612.9,90.2 614.5,93.6C616.2,97 617.1,100.9 617.1,105.5L617.1,110.8L583.9,110.8C583.9,115.9 585.3,119.7 587.8,122.4C590.4,125.1 593.9,126.4 598.5,126.4C603.1,126.4 604.5,126.1 606.9,125.6C609.4,125 612,124.1 614.6,122.9L614.6,131C612.2,132.1 609.7,132.9 607.1,133.5C604.6,134 601.6,134.3 598.1,134.3C594.6,134.3 589.1,133.4 585.5,131.5C581.8,129.6 579,126.8 576.9,123.1C574.9,119.3 573.9,114.7 573.9,109.2C573.9,103.7 574.8,98.9 576.6,95.1C578.5,91.3 581.1,88.3 584.4,86.3C587.8,84.3 591.8,83.2 596.2,83.2ZM596.2,90.7C592.7,90.7 589.9,91.8 587.8,94.1C585.7,96.4 584.5,99.6 584.1,103.7L607.4,103.7C607.4,101.1 607,98.9 606.2,96.9C605.4,94.9 604.2,93.4 602.5,92.3C600.9,91.3 598.8,90.7 596.2,90.7Z" style="fill:white;fill-rule:nonzero;"/>
        </g>
    </g>
</svg>
