<?xml version="1.0" encoding="UTF-8" standalone="no"?>
<!DOCTYPE svg PUBLIC "-//W3C//DTD SVG 1.1//EN" "http://www.w3.org/Graphics/SVG/1.1/DTD/svg11.dtd">
<svg width="100%" height="100%" viewBox="0 0 217 33" version="1.1" xmlns="http://www.w3.org/2000/svg" xmlns:xlink="http://www.w3.org/1999/xlink" xml:space="preserve" xmlns:serif="http://www.serif.com/" style="fill-rule:evenodd;clip-rule:evenodd;stroke-linejoin:round;stroke-miterlimit:2;">
    <g transform="matrix(1.33333,0,0,1.33333,0,0)">
        <path d="M52.751,0.414L61.859,0.414L61.859,24.044L52.751,24.044L52.751,0.414ZM41.711,0.74L23.223,10.66C22.955,10.801 22.635,10.801 22.367,10.66L3.879,0.74C3.472,0.525 3.018,0.413 2.558,0.414L2.535,0.414C1.231,0.337 0.092,1.338 0,2.641L0,24.017L9.1,24.017L9.1,13.842C9.153,13.381 9.548,13.029 10.012,13.029C10.179,13.029 10.342,13.074 10.485,13.16L20.846,18.728C21.887,19.277 23.132,19.287 24.182,18.756L35.115,13.122C35.255,13.041 35.413,12.998 35.575,12.998C36.039,12.998 36.434,13.351 36.486,13.812L36.486,24.017L45.586,24.017L45.586,2.641C45.494,1.34 44.357,0.34 43.055,0.414L43.032,0.414C42.572,0.413 42.118,0.525 41.711,0.74ZM107.275,0.414L98.038,0.414L98.038,11.169C97.988,11.63 97.594,11.983 97.13,11.983C96.98,11.983 96.832,11.946 96.7,11.875L72.762,0.675C72.389,0.502 71.982,0.413 71.571,0.414L71.555,0.414C70.251,0.337 69.112,1.338 69.02,2.641L69.02,24.018L78.183,24.018L78.183,13.275C78.234,12.814 78.628,12.461 79.091,12.461C79.241,12.461 79.388,12.498 79.52,12.568L103.552,23.768C103.924,23.94 104.33,24.029 104.74,24.028C106.044,24.105 107.183,23.104 107.275,21.801L107.275,0.414ZM114.436,24.044L114.436,0.414L118.627,0.414L118.627,24.044L114.436,24.044ZM143.292,24.465C132.018,24.465 124.02,19.765 124.02,12.233C124.02,4.741 132.066,0 143.292,0C154.518,0 162.612,4.7 162.612,12.233C162.612,19.766 154.71,24.465 143.292,24.465ZM143.292,3.132C134.909,3.132 128.452,6.349 128.452,12.232C128.452,18.158 134.909,21.332 143.292,21.332C151.675,21.332 158.179,18.158 158.179,12.232C158.179,6.349 151.675,3.132 143.292,3.132Z" style="fill:white;fill-rule:nonzero;"/>
    </g>
</svg>
